<svg width="29" height="29" viewBox="0 0 29 29" fill="none" xmlns="http://www.w3.org/2000/svg">
<circle cx="14.5" cy="14.5" r="14.5" fill="#0066CC"/>
<path fill-rule="evenodd" clip-rule="evenodd" d="M15.117 14.8085C17.1619 14.8085 18.8191 13.1512 18.8191 11.1064C18.8191 9.06152 17.1619 7.40425 15.117 7.40425C13.0722 7.40425 11.4149 9.06152 11.4149 11.1064C11.4149 13.1512 13.0722 14.8085 15.117 14.8085ZM20.2074 22.2127C20.9739 22.2127 21.5957 21.5909 21.5957 20.8244V19.6213C21.5957 17.4752 19.8546 15.734 17.7085 15.734H17.2255C16.5834 16.029 15.869 16.1968 15.117 16.1968C14.365 16.1968 13.6535 16.029 13.0085 15.734H12.5255C10.3795 15.734 8.63831 17.4752 8.63831 19.6213V20.8244C8.63831 21.5909 9.26015 22.2127 10.0266 22.2127H20.2074Z" fill="#F0F0F0"/>
</svg>
